<?xml version="1.0" encoding="UTF-8" standalone="no"?>
<svg width="100px" height="125px" viewBox="0 0 100 125" version="1.1" xmlns="http://www.w3.org/2000/svg" xmlns:xlink="http://www.w3.org/1999/xlink" xmlns:sketch="http://www.bohemiancoding.com/sketch/ns">
    <title>pdf</title>
    <description>Created with Sketch (http://www.bohemiancoding.com/sketch)</description>
    <defs></defs>
    <g id="Page-1" stroke="none" stroke-width="1" fill="none" fill-rule="evenodd" sketch:type="MSPage">
        <path d="M100,13.9273086 L100,122.002782 C100,123.65986 98.6600772,125 97.0071986,125 L2.99280137,125 C1.33801252,125 0,123.6581 0,122.002782 L0,2.99721849 C0,1.34014044 1.33992281,0 2.99280137,0 L75.0359184,0 L100,24.8573987 L100,13.9273086 Z M100,13.9273086" id="Rectangle-1" fill="#30AD63" sketch:type="MSShapeGroup"></path>
        <path d="M75.000032,0 L100,24.9935694 L78.5337398,24.9999998 C77.3179389,25.0003642 76.5072266,25 75.8050781,24.3657227 C75.1029297,23.7314453 74.9951916,22.7583226 75.000032,21.693924 C75.0330897,14.4246251 75.000032,0 75.000032,0 Z M75.000032,0" id="Path" fill="#299455" sketch:type="MSShapeGroup"></path>
        <g id="Rectangle-1-+-Rectangle-2-+-Rectangle-2" sketch:type="MSLayerGroup" transform="translate(35.000000, 47.000000)" fill="#ECF0F1">
            <rect d="M1.99810135,8 C0.894580447,8 0,8.88967395 0,9.991155 L0,28.008845 C0,29.1085295 0.886706352,30 1.99810135,30 L6.00189865,30 C7.10541955,30 8,29.1103261 8,28.008845 L8,9.991155 C8,8.89147046 7.11329365,8 6.00189865,8 L1.99810135,8 Z M1.99810135,8" id="Rectangle-2" sketch:type="MSShapeGroup" x="0" y="8" width="8" height="22" rx="2"></rect>
            <rect d="M23.9981014,15 C22.8945804,15 22,15.8933973 22,16.9918842 L22,28.0081158 C22,29.1082031 22.8867064,30 23.9981014,30 L28.0018986,30 C29.1054196,30 30,29.1066027 30,28.0081158 L30,16.9918842 C30,15.8917969 29.1132936,15 28.0018986,15 L23.9981014,15 Z M23.9981014,15" id="Rectangle-2" sketch:type="MSShapeGroup" x="22" y="15" width="8" height="15" rx="2"></rect>
            <rect d="M12.9981014,0 C11.8945804,0 11,0.89784041 11,1.99161703 L11,28.008383 C11,29.1083227 11.8867064,30 12.9981014,30 L17.0018986,30 C18.1054196,30 19,29.1021596 19,28.008383 L19,1.99161703 C19,0.891677316 18.1132936,0 17.0018986,0 L12.9981014,0 Z M12.9981014,0" id="Rectangle-2" sketch:type="MSShapeGroup" x="11" y="0" width="8" height="30" rx="2"></rect>
        </g>
    </g>
</svg>