<?xml version="1.0" encoding="UTF-8" standalone="no"?>
<svg width="23px" height="22px" viewBox="0 0 23 22" version="1.1" xmlns="http://www.w3.org/2000/svg" xmlns:xlink="http://www.w3.org/1999/xlink" xmlns:sketch="http://www.bohemiancoding.com/sketch/ns">
    <title>smiley</title>
    <description>Created with Sketch (http://www.bohemiancoding.com/sketch)</description>
    <defs></defs>
    <g id="Page-1" stroke="none" stroke-width="1" fill="none" fill-rule="evenodd" sketch:type="MSPage">
        <g id="Group" sketch:type="MSLayerGroup" transform="translate(1.000000, 1.000000)">
            <path d="M6.104,13.514 L7.064,12.97 C7.9173376,14.4633408 9.13332544,15.21 10.712,15.21 C12.2906746,15.21 13.4959958,14.4633408 14.328,12.97 L15.288,13.514 C14.221328,15.5406768 12.6906766,16.554 10.696,16.554 C8.70132336,16.554 7.170672,15.5406768 6.104,13.514 C6.104,13.514 7.170672,15.5406768 6.104,13.514 L6.104,13.514 L6.104,13.514 Z M6.104,13.514" id="Path" fill="#000000" sketch:type="MSShapeGroup"></path>
            <circle d="M10.696,20 C16.2188478,20 20.696,15.5228478 20.696,10 C20.696,4.47715223 16.2188478,0 10.696,0 C5.17315223,0 0.696,4.47715223 0.696,10 C0.696,15.5228478 5.17315223,20 10.696,20 Z M10.696,20" id="Oval-1" stroke="#000000" stroke-width="1.5" sketch:type="MSShapeGroup" cx="10.696" cy="10" r="10"></circle>
            <circle d="M14.038,8.75 C14.728356,8.75 15.288,8.19035597 15.288,7.5 C15.288,6.80964403 14.728356,6.25 14.038,6.25 C13.347644,6.25 12.788,6.80964403 12.788,7.5 C12.788,8.19035597 13.347644,8.75 14.038,8.75 Z M14.038,8.75" id="Oval-2" fill="#101417" sketch:type="MSShapeGroup" cx="14.038" cy="7.5" r="1.25"></circle>
            <circle d="M7.354,8.75 C8.04435597,8.75 8.604,8.19035597 8.604,7.5 C8.604,6.80964403 8.04435597,6.25 7.354,6.25 C6.66364403,6.25 6.104,6.80964403 6.104,7.5 C6.104,8.19035597 6.66364403,8.75 7.354,8.75 Z M7.354,8.75" id="Oval-2-copy" fill="#101417" sketch:type="MSShapeGroup" cx="7.354" cy="7.5" r="1.25"></circle>
        </g>
    </g>
</svg>